<svg width="800" height="600" xmlns="http://www.w3.org/2000/svg">

 <g>
  <title>Layer 1</title>
  <line transform="rotate(-180 434.4 378.3)" stroke-width="8" stroke-linecap="undefined" stroke-linejoin="undefined" id="svg_2" y2="379.6" x2="637.39999" y1="377" x1="231.4" stroke="#000" fill="none"/>
  <line transform="rotate(-90 300.4 240.3)" stroke-width="8" stroke-linecap="undefined" stroke-linejoin="undefined" id="svg_3" y2="241.6" x2="503.39999" y1="239" x1="97.4" stroke="#000" fill="none"/>
  <line transform="rotate(-180 434.4 378.3)" stroke-width="8" stroke-linecap="undefined" stroke-linejoin="undefined" id="svg_4" y2="379.6" x2="637.39999" y1="377" x1="231.4" stroke="#000" fill="none"/>
  <line transform="rotate(-45 456.4 197.3)" stroke="#000" stroke-width="8" stroke-linecap="undefined" stroke-linejoin="undefined" id="svg_5" y2="198.6" x2="600.00307" y1="196.00001" x1="312.79699" fill="none"/>
  <ellipse transform="rotate(-19.7469 419.4 213.1)" stroke="#000" ry="4.67473" rx="4.27654" id="svg_6" cy="213.10001" cx="419.39999" stroke-width="3" fill="none"/>
  <ellipse transform="rotate(-19.7469 460.4 210.1)" stroke="#000" ry="4.67473" rx="4.27654" id="svg_7" cy="210.10001" cx="460.39999" stroke-width="3" fill="none"/>
  <ellipse transform="rotate(-19.7469 455.4 174.1)" stroke="#000" ry="4.67473" rx="4.27654" id="svg_8" cy="174.10001" cx="455.39999" stroke-width="3" fill="none"/>
  <ellipse transform="rotate(-19.7469 489.4 189.1)" stroke="#000" ry="4.67473" rx="4.27654" id="svg_9" cy="189.10001" cx="489.39999" stroke-width="3" fill="none"/>
  <ellipse transform="rotate(-19.7469 516.4 163.1)" stroke="#000" ry="4.67473" rx="4.27654" id="svg_10" cy="163.10001" cx="516.39999" stroke-width="3" fill="none"/>
  <ellipse transform="rotate(-19.7469 494.4 161.1)" stroke="#000" ry="4.67473" rx="4.27654" id="svg_12" cy="161.10001" cx="494.39999" stroke-width="3" fill="none"/>
  <ellipse transform="rotate(-19.7469 384.4 275.1)" stroke="#000" ry="4.67473" rx="4.27654" id="svg_13" cy="275.10001" cx="384.39999" stroke-width="3" fill="none"/>
  <ellipse transform="rotate(-19.7469 423.4 250.1)" stroke="#000" ry="4.67473" rx="4.27654" id="svg_14" cy="250.10001" cx="423.39999" stroke-width="3" fill="none"/>
  <ellipse transform="rotate(-19.7469 393.4 248.1)" stroke="#000" ry="4.67473" rx="4.27654" id="svg_15" cy="248.10001" cx="393.39999" stroke-width="3" fill="none"/>
  <ellipse transform="rotate(-19.7469 411.4 292.1)" stroke="#000" ry="4.67473" rx="4.27654" id="svg_16" cy="292.10001" cx="411.39999" stroke-width="3" fill="none"/>
  <ellipse transform="rotate(-19.7469 520.4 115.1)" stroke="#000" ry="4.67473" rx="4.27654" id="svg_17" cy="115.10001" cx="520.39999" stroke-width="3" fill="none"/>
  <ellipse transform="rotate(-19.7469 561.4 227.1)" stroke="#000" ry="4.67473" rx="4.27654" id="svg_18" cy="227.10001" cx="561.39999" stroke-width="3" fill="none"/>
  <ellipse transform="rotate(-19.7469 455.4 223.1)" stroke="#000" ry="4.67473" rx="4.27654" id="svg_19" cy="223.10001" cx="455.39999" stroke-width="3" fill="none"/>
 </g>
</svg>